<svg width="1433.919921875px" height="413.639990234375px" xmlns="http://www.w3.org/2000/svg" viewBox="-466.9599609375 -131.8199951171875 1433.919921875 413.639990234375" style="background: rgba(0, 0, 0, 0) none repeat scroll 0% 0%;" preserveAspectRatio="xMidYMid"><defs><filter id="editing-vr"><feFlood flood-color="#f00" flood-opacity="0.7" result="c1"></feFlood><feFlood flood-color="#00f" flood-opacity="0.7" result="c3"></feFlood><feComposite operator="in" in="c1" in2="SourceAlpha" result="text-c1"></feComposite><feComposite operator="in" in="c3" in2="SourceAlpha" result="text-c3"></feComposite><feOffset in="text-c1" dx="5" dy="-1" result="text1"></feOffset><feOffset in="text-c3" dx="-5" dy="1" result="text3"></feOffset><feBlend in="SourceGraphic" in2="text1" mode="multiply" result="text4"></feBlend><feBlend in="text4" in2="text3" mode="multiply"></feBlend></filter></defs><g filter="url(#editing-vr)"><g transform="translate(-269.1599979400635, 127.08000183105469)"><path d="M98.94-86.72L98.94-0.65L98.94-0.65Q97.15-0.16 93.32 0.33L93.32 0.33L93.32 0.33Q89.49 0.82 85.74 0.82L85.74 0.82L85.74 0.82Q81.99 0.82 79.14 0.24L79.14 0.24L79.14 0.24Q76.28-0.33 74.33-1.79L74.33-1.79L74.33-1.79Q72.37-3.26 71.39-5.87L71.39-5.87L71.39-5.87Q70.42-8.48 70.42-12.71L70.42-12.71L70.42-38.14L39.12-38.14L39.12-0.65L39.12-0.65Q37.33-0.16 33.50 0.33L33.50 0.33L33.50 0.33Q29.67 0.82 25.92 0.82L25.92 0.82L25.92 0.82Q22.17 0.82 19.32 0.24L19.32 0.24L19.32 0.24Q16.46-0.33 14.51-1.79L14.51-1.79L14.51-1.79Q12.55-3.26 11.57-5.87L11.57-5.87L11.57-5.87Q10.60-8.48 10.60-12.71L10.60-12.71L10.60-98.78L10.60-98.78Q12.39-99.10 16.30-99.67L16.30-99.67L16.30-99.67Q20.21-100.25 23.80-100.25L23.80-100.25L23.80-100.25Q27.55-100.25 30.40-99.67L30.40-99.67L30.40-99.67Q33.25-99.10 35.21-97.64L35.21-97.64L35.21-97.64Q37.16-96.17 38.14-93.56L38.14-93.56L38.14-93.56Q39.12-90.95 39.12-86.72L39.12-86.72L39.12-60.64L70.42-60.64L70.42-98.78L70.42-98.78Q72.21-99.10 76.12-99.67L76.12-99.67L76.12-99.67Q80.03-100.25 83.62-100.25L83.62-100.25L83.62-100.25Q87.37-100.25 90.22-99.67L90.22-99.67L90.22-99.67Q93.07-99.10 95.03-97.64L95.03-97.64L95.03-97.64Q96.98-96.17 97.96-93.56L97.96-93.56L97.96-93.56Q98.94-90.95 98.94-86.72L98.94-86.72ZM181.26-86.72L181.26-0.65L181.26-0.65Q179.46-0.16 175.63 0.33L175.63 0.33L175.63 0.33Q171.80 0.82 168.05 0.82L168.05 0.82L168.05 0.82Q164.30 0.82 161.45 0.24L161.45 0.24L161.45 0.24Q158.60-0.33 156.64-1.79L156.64-1.79L156.64-1.79Q154.69-3.26 153.71-5.87L153.71-5.87L153.71-5.87Q152.73-8.48 152.73-12.71L152.73-12.71L152.73-98.78L152.73-98.78Q154.52-99.10 158.44-99.67L158.44-99.67L158.44-99.67Q162.35-100.25 165.93-100.25L165.93-100.25L165.93-100.25Q169.68-100.25 172.54-99.67L172.54-99.67L172.54-99.67Q175.39-99.10 177.34-97.64L177.34-97.64L177.34-97.64Q179.30-96.17 180.28-93.56L180.28-93.56L180.28-93.56Q181.26-90.95 181.26-86.72L181.26-86.72ZM303.34-24.29L303.34-24.29L303.34-24.29Q301.22-22.49 297.88-21.43L297.88-21.43L297.88-21.43Q294.54-20.38 290.14-20.38L290.14-20.38L290.14-20.38Q284.27-20.38 280.44-21.84L280.44-21.84L280.44-21.84Q276.61-23.31 275.47-26.89L275.47-26.89L275.47-26.89Q270.91-41.24 267.97-50.12L267.97-50.12L267.97-50.12Q265.04-59.01 263.41-65.69L263.41-65.69L262.59-65.69L262.59-65.69Q262.10-56.07 261.86-48.17L261.86-48.17L261.86-48.17Q261.62-40.26 261.53-32.76L261.53-32.76L261.53-32.76Q261.45-25.27 261.21-17.60L261.21-17.60L261.21-17.60Q260.96-9.94 260.47-0.65L260.47-0.65L260.47-0.65Q258.36 0.16 254.93 0.73L254.93 0.73L254.93 0.73Q251.51 1.30 248.09 1.30L248.09 1.30L248.09 1.30Q240.91 1.30 236.92-0.98L236.92-0.98L236.92-0.98Q232.93-3.26 232.93-9.29L232.93-9.29L237.65-92.42L237.65-92.42Q238.96-94.54 243.36-96.98L243.36-96.98L243.36-96.98Q247.76-99.43 255.75-99.43L255.75-99.43L255.75-99.43Q264.39-99.43 269.28-96.74L269.28-96.74L269.28-96.74Q274.17-94.05 276.45-88.02L276.45-88.02L276.45-88.02Q277.91-84.11 279.63-79.06L279.63-79.06L279.63-79.06Q281.34-74.00 283.05-68.62L283.05-68.62L283.05-68.62Q284.76-63.24 286.39-57.95L286.39-57.95L286.39-57.95Q288.02-52.65 289.32-48.41L289.32-48.41L290.14-48.41L290.14-48.41Q294.05-62.10 297.96-74.90L297.96-74.90L297.96-74.90Q301.88-87.69 305.14-96.33L305.14-96.33L305.14-96.33Q307.58-97.64 311.41-98.53L311.41-98.53L311.41-98.53Q315.24-99.43 319.97-99.43L319.97-99.43L319.97-99.43Q327.96-99.43 333.01-97.07L333.01-97.07L333.01-97.07Q338.06-94.70 338.88-90.30L338.88-90.30L338.88-90.30Q339.53-87.04 340.26-80.28L340.26-80.28L340.26-80.28Q341.00-73.51 341.81-65.04L341.81-65.04L341.81-65.04Q342.63-56.56 343.44-47.11L343.44-47.11L343.44-47.11Q344.26-37.65 344.99-28.93L344.99-28.93L344.99-28.93Q345.72-20.21 346.21-12.96L346.21-12.96L346.21-12.96Q346.70-5.71 346.86-1.79L346.86-1.79L346.86-1.79Q344.09-0.16 341.08 0.57L341.08 0.57L341.08 0.57Q338.06 1.30 333.33 1.30L333.33 1.30L333.33 1.30Q327.14 1.30 322.90-0.82L322.90-0.82L322.90-0.82Q318.66-2.93 318.34-9.13L318.34-9.13L318.34-9.13Q317.36-26.89 317.12-41.08L317.12-41.08L317.12-41.08Q316.87-55.26 316.38-64.87L316.38-64.87L315.57-64.87L315.57-64.87Q313.94-58.52 310.84-48.90L310.84-48.90L310.84-48.90Q307.74-39.28 303.34-24.29ZM418.58-95.84L418.58-95.84L418.58-95.84Q421.36-97.47 426.98-98.94L426.98-98.94L426.98-98.94Q432.60-100.41 438.31-100.41L438.31-100.41L438.31-100.41Q446.46-100.41 452.73-98.04L452.73-98.04L452.73-98.04Q459.01-95.68 460.80-90.63L460.80-90.63L460.80-90.63Q463.74-82.15 467.16-70.91L467.16-70.91L467.16-70.91Q470.58-59.66 474.00-47.68L474.00-47.68L474.00-47.68Q477.43-35.70 480.69-24.04L480.69-24.04L480.69-24.04Q483.95-12.39 486.39-3.42L486.39-3.42L486.39-3.42Q484.44-1.14 480.52 0.24L480.52 0.24L480.52 0.24Q476.61 1.63 471.23 1.63L471.23 1.63L471.23 1.63Q467.32 1.63 464.63 0.98L464.63 0.98L464.63 0.98Q461.94 0.33 460.23-0.98L460.23-0.98L460.23-0.98Q458.52-2.28 457.46-4.40L457.46-4.40L457.46-4.40Q456.40-6.52 455.58-9.29L455.58-9.29L452.65-20.54L423.15-20.54L423.15-20.54Q421.84-15.65 420.54-10.43L420.54-10.43L420.54-10.43Q419.24-5.22 417.93-0.33L417.93-0.33L417.93-0.33Q415.65 0.49 413.12 1.06L413.12 1.06L413.12 1.06Q410.60 1.63 407.01 1.63L407.01 1.63L407.01 1.63Q398.70 1.63 394.70-1.22L394.70-1.22L394.70-1.22Q390.71-4.08 390.71-9.13L390.71-9.13L390.71-9.13Q390.71-11.41 391.36-13.69L391.36-13.69L391.36-13.69Q392.01-15.97 392.83-19.07L392.83-19.07L392.83-19.07Q393.97-23.47 396.01-29.99L396.01-29.99L396.01-29.99Q398.05-36.51 400.49-44.09L400.49-44.09L400.49-44.09Q402.94-51.67 405.71-59.66L405.71-59.66L405.71-59.66Q408.48-67.64 410.92-74.74L410.92-74.74L410.92-74.74Q413.37-81.83 415.41-87.37L415.41-87.37L415.41-87.37Q417.44-92.91 418.58-95.84ZM439.12-74.82L438.14-74.82L438.14-74.82Q435.86-67.97 433.01-59.58L433.01-59.58L433.01-59.58Q430.16-51.18 427.88-42.54L427.88-42.54L448.09-42.54L448.09-42.54Q445.81-51.34 443.44-59.74L443.44-59.74L443.44-59.74Q441.08-68.13 439.12-74.82L439.12-74.82ZM621.85-87.20L621.85-3.42L621.85-3.42Q619.56-1.14 615.24 0.08L615.24 0.08L615.24 0.08Q610.92 1.30 604.89 1.30L604.89 1.30L604.89 1.30Q598.86 1.30 593.48-0.49L593.48-0.49L593.48-0.49Q588.10-2.28 584.68-9.13L584.68-9.13L568.54-42.05L568.54-42.05Q566.10-47.11 564.14-51.59L564.14-51.59L564.14-51.59Q562.19-56.07 559.91-61.94L559.91-61.94L558.93-61.78L558.93-61.78Q559.58-52.98 559.66-43.85L559.66-43.85L559.66-43.85Q559.74-34.72 559.74-25.92L559.74-25.92L559.74-0.65L559.74-0.65Q557.95-0.16 554.28 0.33L554.28 0.33L554.28 0.33Q550.61 0.82 547.03 0.82L547.03 0.82L547.03 0.82Q543.44 0.82 540.67 0.33L540.67 0.33L540.67 0.33Q537.90-0.16 536.11-1.63L536.11-1.63L536.11-1.63Q534.31-3.10 533.34-5.62L533.34-5.62L533.34-5.62Q532.36-8.15 532.36-12.22L532.36-12.22L532.36-93.73L532.36-93.73Q534.64-96.98 539.37-98.62L539.37-98.62L539.37-98.62Q544.09-100.25 549.47-100.25L549.47-100.25L549.47-100.25Q555.50-100.25 560.96-98.37L560.96-98.37L560.96-98.37Q566.43-96.50 569.69-89.81L569.69-89.81L585.99-56.89L585.99-56.89Q588.43-51.83 590.39-47.35L590.39-47.35L590.39-47.35Q592.34-42.87 594.62-37.00L594.62-37.00L595.44-37.16L595.44-37.16Q594.79-45.97 594.62-54.77L594.62-54.77L594.62-54.77Q594.46-63.57 594.46-72.37L594.46-72.37L594.46-98.78L594.46-98.78Q596.25-99.27 599.92-99.76L599.92-99.76L599.92-99.76Q603.59-100.25 607.18-100.25L607.18-100.25L607.18-100.25Q614.35-100.25 618.10-97.72L618.10-97.72L618.10-97.72Q621.85-95.19 621.85-87.20L621.85-87.20ZM710.52-37.00L703.67-39.28L703.67-39.28Q696.50-41.73 690.63-44.25L690.63-44.25L690.63-44.25Q684.76-46.78 680.53-50.37L680.53-50.37L680.53-50.37Q676.29-53.95 673.92-58.92L673.92-58.92L673.92-58.92Q671.56-63.90 671.56-71.07L671.56-71.07L671.56-71.07Q671.56-84.92 682.24-93.24L682.24-93.24L682.24-93.24Q692.91-101.55 712.15-101.55L712.15-101.55L712.15-101.55Q719.16-101.55 725.19-100.57L725.19-100.57L725.19-100.57Q731.22-99.59 735.54-97.56L735.54-97.56L735.54-97.56Q739.86-95.52 742.30-92.34L742.30-92.34L742.30-92.34Q744.75-89.16 744.75-84.92L744.75-84.92L744.75-84.92Q744.75-80.69 742.79-77.67L742.79-77.67L742.79-77.67Q740.84-74.65 738.06-72.53L738.06-72.53L738.06-72.53Q734.48-74.82 728.45-76.53L728.45-76.53L728.45-76.53Q722.42-78.24 715.24-78.24L715.24-78.24L715.24-78.24Q707.91-78.24 704.49-76.20L704.49-76.20L704.49-76.20Q701.06-74.17 701.06-71.07L701.06-71.07L701.06-71.07Q701.06-68.62 703.18-67.07L703.18-67.07L703.18-67.07Q705.30-65.53 709.54-64.22L709.54-64.22L718.18-61.45L718.18-61.45Q733.50-56.56 741.73-48.98L741.73-48.98L741.73-48.98Q749.96-41.40 749.96-28.36L749.96-28.36L749.96-28.36Q749.96-14.51 739.04-5.95L739.04-5.95L739.04-5.95Q728.12 2.61 706.93 2.61L706.93 2.61L706.93 2.61Q699.43 2.61 692.99 1.39L692.99 1.39L692.99 1.39Q686.56 0.16 681.75-2.20L681.75-2.20L681.75-2.20Q676.94-4.56 674.25-8.07L674.25-8.07L674.25-8.07Q671.56-11.57 671.56-16.14L671.56-16.14L671.56-16.14Q671.56-20.86 674.33-24.21L674.33-24.21L674.33-24.21Q677.10-27.55 680.36-29.34L680.36-29.34L680.36-29.34Q684.93-25.75 691.53-23.15L691.53-23.15L691.53-23.15Q698.13-20.54 705.95-20.54L705.95-20.54L705.95-20.54Q713.94-20.54 717.20-22.98L717.20-22.98L717.20-22.98Q720.46-25.43 720.46-28.69L720.46-28.69L720.46-28.69Q720.46-31.95 717.85-33.66L717.85-33.66L717.85-33.66Q715.24-35.37 710.52-37.00L710.52-37.00ZM886.39-86.72L886.39-0.65L886.39-0.65Q884.60-0.16 880.77 0.33L880.77 0.33L880.77 0.33Q876.94 0.82 873.19 0.82L873.19 0.82L873.19 0.82Q869.44 0.82 866.59 0.24L866.59 0.24L866.59 0.24Q863.74-0.33 861.78-1.79L861.78-1.79L861.78-1.79Q859.83-3.26 858.85-5.87L858.85-5.87L858.85-5.87Q857.87-8.48 857.87-12.71L857.87-12.71L857.87-38.14L826.57-38.14L826.57-0.65L826.57-0.65Q824.78-0.16 820.95 0.33L820.95 0.33L820.95 0.33Q817.12 0.82 813.37 0.82L813.37 0.82L813.37 0.82Q809.62 0.82 806.77 0.24L806.77 0.24L806.77 0.24Q803.92-0.33 801.96-1.79L801.96-1.79L801.96-1.79Q800.00-3.26 799.03-5.87L799.03-5.87L799.03-5.87Q798.05-8.48 798.05-12.71L798.05-12.71L798.05-98.78L798.05-98.78Q799.84-99.10 803.75-99.67L803.75-99.67L803.75-99.67Q807.67-100.25 811.25-100.25L811.25-100.25L811.25-100.25Q815.00-100.25 817.85-99.67L817.85-99.67L817.85-99.67Q820.71-99.10 822.66-97.64L822.66-97.64L822.66-97.64Q824.62-96.17 825.60-93.56L825.60-93.56L825.60-93.56Q826.57-90.95 826.57-86.72L826.57-86.72L826.57-60.64L857.87-60.64L857.87-98.78L857.87-98.78Q859.66-99.10 863.57-99.67L863.57-99.67L863.57-99.67Q867.49-100.25 871.07-100.25L871.07-100.25L871.07-100.25Q874.82-100.25 877.67-99.67L877.67-99.67L877.67-99.67Q880.53-99.10 882.48-97.64L882.48-97.64L882.48-97.64Q884.44-96.17 885.42-93.56L885.42-93.56L885.42-93.56Q886.39-90.95 886.39-86.72L886.39-86.72ZM1027.72-86.72L1027.72-36.51L1027.72-36.51Q1027.72-27.71 1024.70-20.46L1024.70-20.46L1024.70-20.46Q1021.68-13.20 1015.98-8.07L1015.98-8.07L1015.98-8.07Q1010.27-2.93 1002.12-0.16L1002.12-0.16L1002.12-0.16Q993.97 2.61 983.71 2.61L983.71 2.61L983.71 2.61Q973.44 2.61 965.29-0.16L965.29-0.16L965.29-0.16Q957.14-2.93 951.43-8.07L951.43-8.07L951.43-8.07Q945.73-13.20 942.71-20.46L942.71-20.46L942.71-20.46Q939.70-27.71 939.70-36.51L939.70-36.51L939.70-98.78L939.70-98.78Q941.49-99.10 945.40-99.67L945.40-99.67L945.40-99.67Q949.31-100.25 952.90-100.25L952.90-100.25L952.90-100.25Q956.65-100.25 959.50-99.67L959.50-99.67L959.50-99.67Q962.35-99.10 964.31-97.64L964.31-97.64L964.31-97.64Q966.26-96.17 967.24-93.56L967.24-93.56L967.24-93.56Q968.22-90.95 968.22-86.72L968.22-86.72L968.22-37.00L968.22-37.00Q968.22-29.18 972.54-24.78L972.54-24.78L972.54-24.78Q976.86-20.38 983.71-20.38L983.71-20.38L983.71-20.38Q990.71-20.38 994.95-24.78L994.95-24.78L994.95-24.78Q999.19-29.18 999.19-37.00L999.19-37.00L999.19-98.78L999.19-98.78Q1000.98-99.10 1004.90-99.67L1004.90-99.67L1004.90-99.67Q1008.81-100.25 1012.39-100.25L1012.39-100.25L1012.39-100.25Q1016.14-100.25 1018.99-99.67L1018.99-99.67L1018.99-99.67Q1021.85-99.10 1023.80-97.64L1023.80-97.64L1023.80-97.64Q1025.76-96.17 1026.74-93.56L1026.74-93.56L1026.74-93.56Q1027.72-90.95 1027.72-86.72L1027.72-86.72Z" fill="#444"></path></g></g><style>text {
  font-size: 64px;
  font-family: Arial Black;
  dominant-baseline: central;
  text-anchor: middle;
}</style></svg>